<?xml version="1.0" encoding="UTF-8" standalone="no"?>
<svg
   height="297mm"
   id="svg1"
   version="1.1"
   viewBox="0 0 420 297"
   width="420mm"
   sodipodi:docname="output.svg"
   inkscape:version="1.2.2 (732a01da63, 2022-12-09)"
   xmlns:inkscape="http://www.inkscape.org/namespaces/inkscape"
   xmlns:sodipodi="http://sodipodi.sourceforge.net/DTD/sodipodi-0.dtd"
   xmlns="http://www.w3.org/2000/svg"
   xmlns:svg="http://www.w3.org/2000/svg">
  <defs
     id="defs3459" />
  <sodipodi:namedview
     id="namedview3457"
     pagecolor="#ffffff"
     bordercolor="#666666"
     borderopacity="1.0"
     inkscape:showpageshadow="2"
     inkscape:pageopacity="0.0"
     inkscape:pagecheckerboard="0"
     inkscape:deskcolor="#d1d1d1"
     inkscape:document-units="mm"
     showgrid="false"
     inkscape:zoom="0.31220833"
     inkscape:cx="997.73122"
     inkscape:cy="1162.6852"
     inkscape:window-width="1680"
     inkscape:window-height="987"
     inkscape:window-x="-8"
     inkscape:window-y="-8"
     inkscape:window-maximized="1"
     inkscape:current-layer="Lines" />
  <g
     id="Lines"
     inkscape:groupmode="layer"
     inkscape:label="Lines">
    <g
       id="g3612"
       transform="rotate(90,323.41041,131.91439)">
      <path
         d="m 310.38142,305.30319 0.12982,-159.99995"
         fill="none"
         id="path1"
         style="stroke:#00ff00;stroke-width:0.254;stroke-linecap:butt;stroke-linejoin:miter;stroke-opacity:1" />
      <path
         d="m 355.90826,305.34013 0.12982,-159.99995"
         fill="none"
         id="path2"
         style="stroke:#00ff00;stroke-width:0.254;stroke-linecap:butt;stroke-linejoin:miter;stroke-opacity:1" />
      <path
         d="m 355.90826,305.34013 49.76136,0.0404"
         fill="none"
         id="path3"
         style="stroke:#00ff00;stroke-width:0.254;stroke-linecap:butt;stroke-linejoin:miter;stroke-opacity:1" />
      <path
         d="m 405.66962,305.3805 0.12982,-159.99995"
         fill="none"
         id="path4"
         style="stroke:#00ff00;stroke-width:0.254;stroke-linecap:butt;stroke-linejoin:miter;stroke-opacity:1" />
      <path
         d="m 405.79944,145.38055 -49.76136,-0.0404"
         fill="none"
         id="path5"
         style="stroke:#00ff00;stroke-width:0.254;stroke-linecap:butt;stroke-linejoin:miter;stroke-opacity:1" />
      <path
         d="m 478.7796,305.43982 0.12982,-159.99995"
         fill="none"
         id="path6"
         style="stroke:#00ff00;stroke-width:0.254;stroke-linecap:butt;stroke-linejoin:miter;stroke-opacity:1" />
      <path
         d="m 478.90942,145.43987 -73.10998,-0.0593 -4.99594,-5.00405 -39.70271,-0.0322 -5.06271,4.99589 -45.52684,-0.0369 -98.36318,-0.0798 -0.12982,159.99995 98.36318,0.0798 45.52684,0.0369 5.0546,5.0041 39.70271,0.0322 5.00405,-4.99594 73.10998,0.0593 5.00406,-4.99594 0.1217,-149.99995 z"
         fill="none"
         id="path25"
         style="stroke:#ff0000;stroke-width:0.254;stroke-linecap:butt;stroke-linejoin:miter;stroke-opacity:1" />
    </g>
    <g
       id="g3645"
       transform="translate(-124.66442,365.37173)">
      <g
         id="g3633">
        <g
           id="g3622">
          <g
             id="g3585">
            <path
               d="M 371.33917,6.708214 111.67012,4.966348"
               fill="none"
               id="path7"
               style="stroke:#00ff00;stroke-width:0.254;stroke-linecap:butt;stroke-linejoin:miter;stroke-opacity:1" />
            <path
               d="M 370.84876,79.816569 371.33917,6.708214"
               fill="none"
               id="path8"
               style="stroke:#00ff00;stroke-width:0.254;stroke-linecap:butt;stroke-linejoin:miter;stroke-opacity:1" />
            <path
               d="m 111.67012,4.966348 -0.0409,71.391332"
               fill="none"
               id="path9"
               style="stroke:#00ff00;stroke-width:0.254;stroke-linecap:butt;stroke-linejoin:miter;stroke-opacity:1" />
            <path
               d="M 294.44929,129.2152 323.10325,93.836614"
               fill="none"
               id="path10"
               style="stroke:#00ff00;stroke-width:0.254;stroke-linecap:butt;stroke-linejoin:miter;stroke-opacity:1" />
            <path
               d="m 134.35684,77.09015 61.72927,52.04524"
               fill="none"
               id="path11"
               style="stroke:#00ff00;stroke-width:0.254;stroke-linecap:butt;stroke-linejoin:miter;stroke-opacity:1" />
            <path
               d="m 196.08611,129.13539 98.36318,0.0798"
               fill="none"
               id="path12"
               style="stroke:#00ff00;stroke-width:0.254;stroke-linecap:butt;stroke-linejoin:miter;stroke-opacity:1" />
            <path
               d="m 111.62924,76.35768 22.7276,0.73247 0.59969,7.045592 54.08399,45.599348 7.04559,-0.5997 4.99594,5.00406 88.36319,0.0717 5.00405,-4.99594 7.0324,-0.73853 22.3601,-27.60766 -0.73854,-7.032396 47.74551,-14.020045 5.03343,-4.966348 0.42333,-63.10858 L 371.33917,6.708214 363.25805,1.653893 116.70355,0 l -5.03343,4.966348 -5.00286,4.997136 -0.0352,61.391333 z"
               fill="none"
               id="path26"
               style="stroke:#ff0000;stroke-width:0.254;stroke-linecap:butt;stroke-linejoin:miter;stroke-opacity:1" />
          </g>
        </g>
      </g>
    </g>
    <g
       id="g3603"
       transform="rotate(90,277.22816,195.18211)">
      <g
         id="g3687">
        <g
           id="g3675">
          <g
             id="g3664">
            <g
               id="g3654">
              <path
                 d="m 370.97132,460.07173 -0.37177,-73.10905"
                 fill="none"
                 id="path13"
                 style="stroke:#00ff00;stroke-width:0.254;stroke-linecap:butt;stroke-linejoin:miter;stroke-opacity:1" />
              <path
                 d="M 322.87685,372.86517 294.28034,337.44013"
                 fill="none"
                 id="path14"
                 style="stroke:#00ff00;stroke-width:0.254;stroke-linecap:butt;stroke-linejoin:miter;stroke-opacity:1" />
              <path
                 d="m 195.91716,337.36032 -61.81365,51.94501"
                 fill="none"
                 id="path15"
                 style="stroke:#00ff00;stroke-width:0.254;stroke-linecap:butt;stroke-linejoin:miter;stroke-opacity:1" />
              <path
                 d="m 111.37476,390.00092 -0.075,71.3913"
                 fill="none"
                 id="path16"
                 style="stroke:#00ff00;stroke-width:0.254;stroke-linecap:butt;stroke-linejoin:miter;stroke-opacity:1" />
              <path
                 d="m 111.29979,461.39222 259.67153,-1.32049"
                 fill="none"
                 id="path17"
                 style="stroke:#00ff00;stroke-width:0.254;stroke-linecap:butt;stroke-linejoin:miter;stroke-opacity:1" />
              <path
                 d="m 294.28034,337.44013 -98.36318,-0.0798"
                 fill="none"
                 id="path18"
                 style="stroke:#00ff00;stroke-width:0.254;stroke-linecap:butt;stroke-linejoin:miter;stroke-opacity:1" />
              <path
                 d="m 134.10351,389.30533 -22.72875,0.69559 -5.00525,4.99474 -0.0645,61.39131 4.99474,5.00525 8.14016,4.95867 246.55687,-1.25379 4.9745,-5.02537 4.97451,-5.02536 -0.32092,-63.10918 -5.02536,-4.97451 -47.7227,-14.09751 0.74995,-7.03118 -22.31527,-27.64391 -7.03119,-0.74995 -4.99594,-5.00405 -88.36318,-0.0717 -5.00406,4.99594 -7.04461,-0.61112 -54.15791,45.51152 z"
                 fill="none"
                 id="path27"
                 style="stroke:#ff0000;stroke-width:0.254;stroke-linecap:butt;stroke-linejoin:miter;stroke-opacity:1" />
            </g>
          </g>
        </g>
      </g>
    </g>
    <g
       id="g3594"
       transform="translate(317.90701,193.5376)">
      <path
         d="m 99.256472,145.13183 -0.12982,159.99995"
         fill="none"
         id="path19"
         style="stroke:#00ff00;stroke-width:0.254;stroke-linecap:butt;stroke-linejoin:miter;stroke-opacity:1" />
      <path
         d="M 76.517081,145.11338 76.387262,305.11333"
         fill="none"
         id="path20"
         style="stroke:#00ff00;stroke-width:0.254;stroke-linecap:butt;stroke-linejoin:miter;stroke-opacity:1" />
      <path
         d="m 76.387262,305.11333 22.73939,0.0184"
         fill="none"
         id="path21"
         style="stroke:#00ff00;stroke-width:0.254;stroke-linecap:butt;stroke-linejoin:miter;stroke-opacity:1" />
      <path
         d="m 99.256472,145.13183 -22.739391,-0.0185"
         fill="none"
         id="path22"
         style="stroke:#00ff00;stroke-width:0.254;stroke-linecap:butt;stroke-linejoin:miter;stroke-opacity:1" />
      <path
         d="M 5.125761,145.05546 4.995941,305.05541"
         fill="none"
         id="path23"
         style="stroke:#00ff00;stroke-width:0.254;stroke-linecap:butt;stroke-linejoin:miter;stroke-opacity:1" />
      <path
         d="m 179.86826,305.19729 0.12981,-159.99994"
         fill="none"
         id="path24"
         style="stroke:#00ff00;stroke-width:0.254;stroke-linecap:butt;stroke-linejoin:miter;stroke-opacity:1" />
      <path
         d="m 179.99807,145.19735 -80.741598,-0.0655 -4.995942,-5.00405 -12.739393,-0.0103 -5.004056,4.99594 -71.39132,-0.0579 L 0.121706,150.0514 0,300.05135 l 4.995941,5.00406 71.391321,0.0579 4.995941,5.00406 12.739394,0.0103 5.004055,-4.99594 80.741608,0.0655 5.00405,-4.99594 0.11916,-146.86683 z"
         fill="none"
         id="path28"
         style="stroke:#ff0000;stroke-width:0.254;stroke-linecap:butt;stroke-linejoin:miter;stroke-opacity:1" />
    </g>
  </g>
</svg>
