<?xml version="1.0" encoding="UTF-8" standalone="no"?>
<svg
   xmlns:dc="http://purl.org/dc/elements/1.1/"
   xmlns:cc="http://creativecommons.org/ns#"
   xmlns:rdf="http://www.w3.org/1999/02/22-rdf-syntax-ns#"
   xmlns:svg="http://www.w3.org/2000/svg"
   xmlns="http://www.w3.org/2000/svg"
   xmlns:sodipodi="http://sodipodi.sourceforge.net/DTD/sodipodi-0.dtd"
   xmlns:inkscape="http://www.inkscape.org/namespaces/inkscape"
   width="334mm"
   height="95mm"
   viewBox="0 0 334 95"
   version="1.1"
   preserveAspectRatio="xMidYMid meet"
   id="svg9"
   sodipodi:docname="boitelaser.svg"
   inkscape:version="1.0.1 (3bc2e813f5, 2020-09-07)">
  <metadata
     id="metadata15">
    <rdf:RDF>
      <cc:Work
         rdf:about="">
        <dc:format>image/svg+xml</dc:format>
        <dc:type
           rdf:resource="http://purl.org/dc/dcmitype/StillImage" />
        <dc:title></dc:title>
      </cc:Work>
    </rdf:RDF>
  </metadata>
  <defs
     id="defs13" />
  <sodipodi:namedview
     pagecolor="#ffffff"
     bordercolor="#666666"
     borderopacity="1"
     objecttolerance="10"
     gridtolerance="10"
     guidetolerance="10"
     inkscape:pageopacity="0"
     inkscape:pageshadow="2"
     inkscape:window-width="1920"
     inkscape:window-height="1017"
     id="namedview11"
     showgrid="false"
     inkscape:document-units="mm"
     inkscape:zoom="1"
     inkscape:cx="747.378"
     inkscape:cy="147.07832"
     inkscape:window-x="-8"
     inkscape:window-y="-8"
     inkscape:window-maximized="1"
     inkscape:current-layer="svg9" />
  <path
     d="m 0,69 v 8.125 h 3 v 9.75 H 0 V 95 h 16.875 v -3 h 9.75 v 3 h 9.75 v -3 h 9.75 v 3 h 9.75 v -3 h 9.75 v 3 h 9.75 v -3 h 9.75 v 3 h 9.75 v -3 h 9.75 v 3 h 9.75 v -3 h 9.75 v 3 h 9.75 7.125 v -8.125 h -3 v -9.75 h 3 V 69 h -16.875 v 3 h -9.75 v -3 h -9.75 v 3 h -9.75 v -3 h -9.75 v 3 h -9.75 v -3 h -9.75 v 3 h -9.75 v -3 h -9.75 v 3 h -9.75 v -3 h -9.75 v 3 h -9.75 v -3 h -9.75 z"
     id="front_outsideCutPath"
     stroke="#FF0000"
     stroke-width="0.1"
     style="font-size:12px;fill:#000000;fill-rule:evenodd;stroke:none;stroke-width:0.1;stroke-linecap:round;fill-opacity:1"
     vector-effect="non-scaling-stroke" />
  <path
     d="m 147,69 v 8.125 h -3 v 9.75 h 3 V 95 h 5.375 v -3 h 9.75 v 3 h 9.75 v -3 h 9.75 v 3 H 187 v -8.125 h 3 v -9.75 h -3 V 69 h -5.375 v 3 h -9.75 v -3 h -9.75 v 3 h -9.75 v -3 z"
     id="left_outsideCutPath"
     stroke="#FF0000"
     stroke-width="0.1"
     style="font-size:12px;fill:#000000;fill-rule:evenodd;stroke:none;stroke-width:0.1;stroke-linecap:round;fill-opacity:1"
     vector-effect="non-scaling-stroke" />
  <path
     d="m 196,52 v 5.375 h -3 v 9.75 h 3 v 9.75 h -3 v 9.75 h 3 V 92 h 13.875 v 3 h 9.75 v -3 h 9.75 v 3 h 9.75 v -3 h 9.75 v 3 h 9.75 v -3 h 9.75 v 3 h 9.75 v -3 h 9.75 v 3 h 9.75 v -3 h 9.75 v 3 h 9.75 v -3 h 9.75 4.125 v -5.375 h 3 v -9.75 h -3 v -9.75 h 3 v -9.75 h -3 V 52 h -13.875 v -3 h -9.75 v 3 h -9.75 v -3 h -9.75 v 3 h -9.75 v -3 h -9.75 v 3 h -9.75 v -3 h -9.75 v 3 h -9.75 v -3 h -9.75 v 3 h -9.75 v -3 h -9.75 v 3 h -9.75 z"
     id="top_outsideCutPath"
     stroke="#FF0000"
     stroke-width="0.1"
     style="font-size:12px;fill:#000000;fill-rule:evenodd;stroke:none;stroke-width:0.1;stroke-linecap:round;fill-opacity:1"
     vector-effect="non-scaling-stroke" />
  <path
     d="m 0,40 v 8.125 h 3 v 9.75 H 0 V 66 h 16.875 v -3 h 9.75 v 3 h 9.75 v -3 h 9.75 v 3 h 9.75 v -3 h 9.75 v 3 h 9.75 v -3 h 9.75 v 3 h 9.75 v -3 h 9.75 v 3 h 9.75 v -3 h 9.75 v 3 h 9.75 7.125 v -8.125 h -3 v -9.75 h 3 V 40 h -16.875 v 3 h -9.75 v -3 h -9.75 v 3 h -9.75 v -3 h -9.75 v 3 h -9.75 v -3 h -9.75 v 3 h -9.75 v -3 h -9.75 v 3 h -9.75 v -3 h -9.75 v 3 h -9.75 v -3 h -9.75 z"
     id="back_outsideCutPath"
     stroke="#FF0000"
     stroke-width="0.1"
     style="font-size:12px;fill:#000000;fill-rule:evenodd;stroke:none;stroke-width:0.1;stroke-linecap:round;fill-opacity:1"
     vector-effect="non-scaling-stroke" />
  <path
     d="m 146.11668,40 v 8.125 h -3 v 9.75 h 3 V 66 h 5.375 v -3 h 9.75 v 3 h 9.75 v -3 h 9.75 v 3 h 5.375 v -8.125 h 3 v -9.75 h -3 V 40 h -5.375 v 3 h -9.75 v -3 h -9.75 v 3 h -9.75 v -3 z"
     id="right_outsideCutPath"
     stroke="#FF0000"
     stroke-width="0.1"
     style="font-size:12px;fill:#000000;fill-opacity:1;fill-rule:evenodd;stroke:none;stroke-width:0.1;stroke-linecap:round"
     vector-effect="non-scaling-stroke" />
  <path
     d="m 196,3 v 5.375 h -3 v 9.75 h 3 v 9.75 h -3 v 9.75 h 3 V 43 h 13.875 v 3 h 9.75 v -3 h 9.75 v 3 h 9.75 v -3 h 9.75 v 3 h 9.75 v -3 h 9.75 v 3 h 9.75 v -3 h 9.75 v 3 h 9.75 v -3 h 9.75 v 3 h 9.75 v -3 h 9.75 4.125 v -5.375 h 3 v -9.75 h -3 v -9.75 h 3 v -9.75 h -3 V 3 H 317.125 V 0 h -9.75 v 3 h -9.75 V 0 h -9.75 v 3 h -9.75 V 0 h -9.75 v 3 h -9.75 V 0 h -9.75 v 3 h -9.75 V 0 h -9.75 v 3 h -9.75 V 0 h -9.75 v 3 h -9.75 z"
     id="bottom_outsideCutPath"
     stroke="#FF0000"
     stroke-width="0.1"
     style="font-size:12px;fill:#000000;fill-rule:evenodd;stroke:none;stroke-width:0.1;stroke-linecap:round;fill-opacity:1"
     vector-effect="non-scaling-stroke" />
  <circle
     style="fill:#fe0000;fill-opacity:1;stroke:none;stroke-width:0.100135;stroke-linejoin:round;stroke-miterlimit:4.48;stroke-dasharray:none;stroke-opacity:1"
     id="path848"
     cx="166.11668"
     cy="53"
     r="3" />
  <rect
     style="fill:#fe0000;fill-opacity:1;stroke:none;stroke-width:0.116653;stroke-linejoin:round;stroke-miterlimit:4.48;stroke-dasharray:none;stroke-opacity:1"
     id="rect850"
     width="6"
     height="6"
     x="213.83096"
     y="20" />
</svg>
